<?xml version="1.0" standalone="no"?><!DOCTYPE svg PUBLIC "-//W3C//DTD SVG 1.1//EN" "http://www.w3.org/Graphics/SVG/1.1/DTD/svg11.dtd"><svg t="1587161050151" class="icon" viewBox="0 0 1024 1024" version="1.1" xmlns="http://www.w3.org/2000/svg" p-id="1165" xmlns:xlink="http://www.w3.org/1999/xlink" width="200" height="200"><defs><style type="text/css"></style></defs><path d="M748.076 871.952c-4.827-27.348-27.348-157.662-83.658-318.542 135.137-22.523 254.189 14.478 268.669 19.305-17.696 123.879-86.874 231.666-185.012 299.236zM506.757 949.175c-99.747 0-191.446-35.394-265.452-94.919 8.043-16.090 94.919-191.446 339.456-278.321 1.609 0 1.609 0 3.219-1.609 61.134 162.49 85.266 299.236 91.7 337.849-51.483 24.132-109.398 37.003-168.924 37.003zM73.989 501.93v-12.87c19.305 0 228.449 3.219 444.029-62.742 12.87 25.741 24.132 49.872 35.394 75.615-6.434 1.609-11.263 3.219-17.696 4.827-223.622 74.004-341.065 276.714-352.325 294.411-65.962-80.441-109.398-185.012-109.398-299.236zM323.352 98.12c11.263 16.090 88.485 127.095 160.88 257.409-202.708 54.7-381.285 54.7-400.59 54.7 27.348-138.356 119.053-252.582 239.712-312.108zM506.757 56.29c109.398 0 210.752 41.828 286.366 112.617-8.043 11.263-72.396 101.356-226.841 160.88-70.787-133.531-149.619-244.537-160.88-260.625 32.174-8.043 65.962-12.87 101.356-12.87zM841.384 220.389c59.525 75.615 96.527 172.142 98.137 278.321-14.478-3.219-157.662-33.786-300.846-14.478-3.219-8.043-6.434-16.090-9.653-22.523-9.653-22.523-19.305-43.437-28.959-64.353 160.88-69.178 233.277-164.097 241.321-176.967z" fill="#8a8a8a" p-id="1166"></path></svg>